<svg width="2500" height="380" viewBox="0 0 2500 380" fill="none" xmlns="http://www.w3.org/2000/svg">
<path d="M2475.62 34.5924H2478.18V24.5005H2481.96L2489.19 34.5924H2492.2L2484.7 24.2325C2486.84 23.6967 2490.27 22.1189 2490.27 17.8916C2490.27 12.7414 2486.72 11.4018 2480.98 11.4018H2475.62V34.5924ZM2478.18 13.5154H2480.92C2484.46 13.5154 2487.65 14.0513 2487.65 17.8618C2487.65 20.5709 2485.59 22.4761 2482.41 22.4761H2478.18V13.5154ZM2482.29 4.34638C2472.43 4.34638 2464.54 12.7117 2464.54 23.1608C2464.54 33.61 2472.43 41.9753 2482.29 41.9753C2492.11 41.9753 2500 33.61 2500 23.1608C2500 12.7117 2492.08 4.34638 2482.38 4.34638H2482.29ZM2482.29 6.43026C2490.92 6.43026 2497.86 13.9025 2497.86 23.1311C2497.86 32.3597 2490.92 39.8319 2482.29 39.8319C2473.59 39.8319 2466.69 32.3597 2466.69 23.1311C2466.69 13.9025 2473.62 6.43026 2482.2 6.43026H2482.29ZM1653.62 2.32204L1626.62 98.9843H1623.52C1617.33 74.3349 1592.41 69.6016 1564.07 69.6016C1499.26 69.6016 1468.45 92.7922 1453.39 150.843L1442.1 194.337C1429.01 244.737 1456.36 264.325 1513.52 264.325C1547.31 264.325 1573.75 257.776 1590.18 229.167H1591.93L1583.27 263.64H1661.89L1732.18 2.35181H1653.62V2.32204ZM1608.1 167.127C1596.91 210.263 1585.39 216.426 1553.44 216.426C1521.02 216.426 1514.56 213.508 1526.62 167.127C1536.41 129.409 1540.43 117.471 1579.13 117.471C1620.1 117.471 1617.72 130.153 1608.1 167.127ZM1947.33 263.551H1867.66L1919.22 70.1672H1998.89L1947.33 263.551ZM2004.27 49.6856H1925.09L1937.44 2.02434H2017.2L2004.27 49.6856ZM2215.07 186.001C2196.71 256.764 2164.5 264.295 2080.4 264.295C1989.03 264.295 1973.14 242.206 1992.63 167.127C2009.37 102.586 2034.16 69.6016 2130.95 69.6016C2198.94 69.6016 2243.8 75.4066 2226.18 143.222H2148.78C2151.87 133.071 2152.11 126.908 2147.76 122.919C2143.39 118.9 2134.76 117.471 2118.53 117.471C2091.05 117.471 2081.41 123.634 2070.1 167.127C2058.49 211.722 2063.58 216.426 2092.87 216.426C2128 216.426 2131.57 209.549 2137.7 185.971L2215.07 186.001ZM847.901 83.1468C855.522 56.6815 827.27 57.0685 801.252 57.0685C738.854 57.0685 733.019 72.3701 720.724 114.465L709.233 156.886C696.7 203.148 715.306 208.031 760.378 208.031C804.556 208.031 818.399 199.993 828.223 163.882H767.939L780.889 115.506H929.291L916.907 161.054C893.091 249.053 860.999 265.04 744.927 265.04C642.668 265.04 594.441 251.107 617.364 166.591L635.613 99.1331C658.952 12.8903 721.379 0 816.702 0C900.742 0 960.43 0.357239 935.84 83.1468H847.901ZM2331.68 107.29H2333.68C2352.73 77.1928 2378.18 69.5718 2414.65 69.5718C2466.87 69.5718 2485.59 89.5175 2474.93 130.481L2439.51 263.611H2362.58L2393.72 145.008C2398.07 126.521 2394.17 117.471 2368.92 117.471C2334.27 117.471 2324.09 134.142 2318.05 157.363L2289.86 263.611H2213.44L2284.08 2.32204H2360.5L2331.68 107.29ZM1079 69.6016C980.406 69.6016 955.935 89.19 935.751 167.127C915.954 243.248 931.673 264.295 1028.48 264.295C1128.3 264.295 1151.76 245.451 1172.06 167.127C1192.99 86.6596 1178.05 69.6016 1079 69.6016ZM1094.66 167.127C1083.94 208.447 1078.26 216.426 1042.21 216.426C1004.85 216.426 1002.44 208.418 1013.12 167.127C1023.87 125.777 1030.54 117.471 1067.9 117.471C1103.92 117.471 1105.35 125.807 1094.66 167.127ZM1335.59 69.6016C1236.96 69.6016 1212.52 89.19 1192.31 167.127C1172.54 243.248 1188.29 264.295 1285.07 264.295C1383.22 264.295 1408.4 245.451 1428.68 167.127C1449.55 86.6596 1434.63 69.6016 1335.59 69.6016ZM1351.25 167.127C1340.53 208.447 1334.81 216.426 1298.85 216.426C1261.46 216.426 1259.02 208.418 1269.74 167.127C1280.45 125.777 1287.12 117.471 1324.51 117.471C1360.53 117.471 1361.96 125.807 1351.25 167.127Z" fill="white"/>
<path d="M272.72 2.2625H101.723L31.2284 263.64H203.833C272.69 263.64 312.314 254.769 329.67 190.764C338.511 158.077 336.576 134.767 289.183 132.326L289.927 129.528C334.314 123.991 348.365 102.408 357.326 69.3634C372.776 12.3544 337.291 2.2625 272.72 2.2625ZM245.898 180.017C240.152 201.213 227.024 206.423 198.891 206.423H133.458L147.152 155.309H214.491C242.653 155.309 251.762 158.434 245.898 180.017ZM267.272 81.9262C261.646 102.765 253.132 106.963 222.796 106.963H160.25L173.051 59.6585H246.017C270.101 60.3432 271.529 66.2674 267.272 81.9262ZM466.194 110.267H598.788L583.486 167.306H451.071L425.528 263.611H338.541L409.185 2.23273H639.334L623.913 59.1226H480.036L466.194 110.267Z" fill="white"/>
<path d="M1797.46 149.176L1767.34 263.551L1687.85 263.64L1739.62 70.971H1816.13L1807.71 102.259C1807.71 102.259 1827.95 71.0603 1878.11 71.0603H1901.09L1888.02 119.972H1835.78C1817.95 120.329 1803.72 127.087 1797.46 149.176ZM2181.32 379.653L2197.21 321.453H15.6886L0 379.653H2181.32ZM2229.6 376.646H2220.94L2235.56 295.762H2210.79L2212.39 286.772H2270.56L2268.93 295.762H2244.19L2229.6 376.646ZM2269.2 376.646H2261.13L2272.5 313.713H2280.57L2269.2 376.646ZM2283.54 297.191H2275.48L2277.32 286.742H2285.39L2283.54 297.191ZM2300.69 313.713L2298.91 321.513L2299.02 321.781C2303.04 314.815 2309.77 313.028 2315.81 313.028C2326.09 313.028 2329.57 319.012 2327.45 330.771L2326.65 335.296H2319L2319.74 331.128C2321.17 323.358 2319.39 320.709 2312.66 320.709C2302.69 320.709 2298.4 326.306 2296.58 337.44L2289.56 376.646H2281.49L2292.83 313.713H2300.69ZM2375.71 357.594L2375.29 359.886C2372.26 376.527 2361.24 377.391 2349.31 377.391C2328.44 377.391 2326.74 369.234 2331.06 345.269C2335.76 319.131 2341.77 313.028 2360.95 313.028C2378.24 313.028 2382.92 317.702 2378.72 340.952L2377.59 347.293H2339.06C2335.49 367.179 2336.27 369.68 2350.73 369.68C2361.72 369.68 2365.44 368.876 2367.05 360.005L2367.49 357.594H2375.71ZM2370.59 339.613C2373.39 321.751 2371.78 320.679 2359.52 320.679C2344.99 320.679 2343.68 325.085 2340.43 339.613H2370.59ZM2434.83 330.146H2426.5L2426.95 327.735C2428.08 321.394 2424 321.394 2415.51 321.394C2405.42 321.394 2400.57 321.275 2399.17 329.074C2397.18 340.297 2399.94 339.494 2408.25 339.97C2421.77 340.952 2434.8 338.392 2431.08 358.904C2427.9 376.646 2417.39 377.391 2405.45 377.391C2393.87 377.391 2381.84 376.676 2384.4 362.625L2385.42 356.79H2393.78L2392.92 361.672C2391.82 367.686 2394.76 368.995 2407 368.995C2412.51 368.995 2420.66 370.424 2422.66 359.291C2424.83 347.531 2420.22 349.705 2410.6 348.99C2399.14 348.038 2387.17 349.467 2390.39 331.605C2393.66 313.386 2402.59 313.028 2417.06 313.028C2426.41 313.028 2437.87 313.505 2435.28 327.764L2434.83 330.146Z" fill="white"/>
</svg>
