<svg width="2501" height="462" viewBox="0 0 2501 462" fill="none" xmlns="http://www.w3.org/2000/svg">
<path d="M476.508 105.06C410.424 92.5681 335.538 139.105 312.819 208.685C283.11 299.882 330.359 345.125 396.379 357.617C462.528 370.173 537.544 323.636 560.068 253.992C590.489 160.011 542.593 117.552 476.508 105.06ZM442.139 308.944C440.986 312.775 439.034 316.319 436.412 319.342C433.791 322.365 430.559 324.799 426.929 326.484C414.178 332.18 388.094 327.908 393.919 302.859L430.877 154.833C432.057 151.005 434.025 147.466 436.656 144.445C439.287 141.424 442.522 138.987 446.152 137.293C458.903 131.662 484.987 135.934 479.227 160.982L442.139 308.944ZM163.046 227.131L142.592 308.944C141.428 312.77 139.472 316.308 136.851 319.33C134.231 322.352 131.005 324.789 127.382 326.484C114.567 332.18 88.4824 327.908 94.3724 302.859L129.583 164.672C132.56 146.16 160.78 127.778 216.314 155.934L233.207 129.267C159.809 84.9953 40.7802 118.652 10.4889 208.685C-18.249 294.251 15.7964 350.626 67.3821 350.691H235.667L266.023 227.131H161.751M778.709 105.06C712.625 92.5681 637.738 139.105 615.02 208.685C585.311 299.882 632.495 345.125 698.58 357.681C764.664 370.173 839.745 323.636 862.269 253.992C892.69 160.011 844.793 117.552 778.709 105.06ZM744.34 308.944C743.186 312.775 741.234 316.319 738.613 319.342C735.991 322.365 732.759 324.799 729.13 326.484C716.379 332.18 690.295 327.908 696.12 302.859L733.078 154.833C734.257 151.005 736.226 147.466 738.857 144.445C741.488 141.424 744.723 138.987 748.353 137.293C761.104 131.597 787.188 135.869 781.427 160.918L744.34 308.944ZM1024.73 352.439C1085.05 352.439 1140.39 322.536 1162.92 252.892C1193.34 158.846 1145.44 113.28 1079.36 113.668H942.01L883.499 352.698L1024.73 352.439ZM1012.11 325.384L990.942 325.189L1036.44 141.371L1057.67 141.112C1070.23 140.788 1084.4 147.325 1080.13 165.448L1044.28 306.29C1043.11 309.99 1041.16 313.4 1038.57 316.29C1035.98 319.181 1032.81 321.486 1029.26 323.054C1023.78 325.073 1017.93 325.868 1012.11 325.384ZM2317.8 280.594C2317.8 280.594 2336.83 279.688 2339.49 292.18L2352.24 352.503H2462.14L2443.89 266.096C2518.19 229.008 2527.9 113.28 2416.7 113.733H2258.13L2199.62 352.698L2301.23 352.568M2301.23 352.568L2352.5 141.371L2368.68 141.112C2381.23 140.788 2395.41 147.325 2391.2 165.448L2377.61 225.384C2376.44 229.094 2374.49 232.511 2371.89 235.403C2369.29 238.295 2366.09 240.595 2362.53 242.147C2357.87 244.154 2333.4 244.607 2327.25 244.348M1665.44 113.604L1596.18 198.782L1571.78 113.604H1458.45L1497.8 250.821L1472.24 352.439H1585.57L1611.14 250.821L1724.02 113.604H1665.44ZM1744.66 113.668H1939.16L1929.52 152.05H1840.26L1825.76 212.568H1889.58L1878.84 252.05H1815.73L1800.13 314.898H1890.29L1881.3 352.633H1686.22L1744.66 113.668ZM2143.95 113.41H2050.29L1904.73 352.568H1947.06L1947.25 353.604L1971.27 314.186L2060.26 314.251L2064.08 353.539H2166.15L2143.95 113.41ZM1996.57 272.762L1996.38 273.215V272.762H1996.57L2048.42 187.714L2056.31 272.762H1996.57ZM1158.77 447.002H1158.58C1202.59 443.054 1261.04 374.769 1300.33 335.934C1339.62 297.099 1398.13 260.918 1416.25 248.296L1425.25 263.248C1407.19 275.804 1348.74 311.986 1309.39 350.821C1270.1 389.656 1211.59 457.94 1167.64 461.889L1158.77 447.002ZM1315.6 102.665C1312.11 93.4743 1309.84 78.5875 1313.34 52.4387L1218.39 104.413L1241.56 142.795L1315.6 102.665ZM1306.02 170.821L1248.94 160.982C1251.27 170.432 1252.95 183.83 1250.36 200.335C1273.4 188.426 1293.14 177.811 1306.02 170.821ZM1271.07 146.937L1321.75 155.675C1321.36 143.007 1322.33 130.334 1324.66 117.876L1271.07 146.937ZM1304.66 308.555C1341.36 274.834 1390.36 244.348 1406.35 233.215C1392.5 211.015 1394.7 211.597 1385.38 197.422C1380.59 203.571 1378 211.079 1366.35 220.27C1357.67 227.131 1358.71 229.85 1348.68 219.364C1331.78 201.694 1325.76 180.206 1325.76 180.206C1325.76 180.206 1280.72 202.277 1256.31 216.193L1304.66 308.555ZM1241.49 225.901L1241.36 226.031C1231.47 244.738 1222.69 264.017 1215.08 283.766C1195.93 331.921 1196.12 350.109 1165.89 385.384C1160.07 392.18 1153.4 402.147 1146.35 409.267C1139.16 416.516 1133.6 434.963 1154.44 431.079C1196.25 423.377 1254.31 358.717 1291.85 320.982L1241.49 225.901Z" fill="white"/>
<path d="M1676.83 0.0114716C1602.01 10.1086 1602.2 9.91438 1448.22 4.02442C1285.57 3.37717 1334.89 110.821 1343.95 113.927C1340.39 138.134 1338.06 160.853 1345.18 177.811C1344.79 176.84 1358.97 212.503 1369.06 192.698C1375.67 179.688 1371.59 189.138 1378.26 172.05C1383.24 159.364 1381.88 147.325 1393.21 159.299C1404.79 171.403 1408.03 161.565 1408.55 149.914C1409 141.759 1406.28 123.442 1419.03 137.034C1428.87 147.584 1436.57 129.073 1435.99 109.008C1435.21 83.5066 1441.95 102.471 1465.7 98.4581C1513.01 90.4969 1485.44 84.4775 1486.67 85.06C1477.03 80.6587 1477.22 77.8756 1492.69 78.005C1495.93 78.005 1499.49 77.8756 1509.06 76.2574C1513.4 74.8982 1532.69 66.0956 1518.26 63.4419C1509.91 61.8885 1511.91 62.0827 1504.66 58.3286C1496.57 50.8853 1502.53 49.5908 1522.79 51.8561C1626.99 67.5843 1669.71 36.3869 1675.99 9.91438C1676.83 6.28979 1679.36 -0.312153 1676.83 0.0114716ZM1365.83 106.678C1362.33 92.3092 1368.55 99.4937 1357.74 95.2866C1343.82 89.7849 1346.61 83.4419 1351.98 84.9953C1356.57 86.2898 1361.88 87.2607 1368.61 86.8723C1372.5 86.7429 1374.95 88.0374 1374.83 91.5325C1374.2 97.9817 1374.73 104.491 1376.38 110.756C1378.26 116.387 1367.38 113.28 1365.83 106.678ZM1444.66 37.3578C1437.28 42.3416 1434.11 36.7105 1427.77 44.9306C1422.98 51.1442 1418.97 52.6976 1411.46 51.9209C1402.85 51.1442 1404.73 54.8982 1399.16 58.005C1393.85 61.1118 1385.25 59.5584 1378.32 57.6814C1373.79 56.4516 1366.54 53.3448 1378.64 51.5325C1387.38 50.238 1389.06 50.7558 1392.82 44.2833C1395.93 38.9759 1397.87 34.704 1405.76 35.3513C1413.53 35.9985 1416.12 35.5455 1420.78 30.8853C1425.89 25.3189 1432.75 27.1959 1432.75 27.1959C1432.75 27.1959 1437.48 28.8141 1440.78 28.2963C1450.49 27.0018 1455.54 30.238 1444.66 37.3578Z" fill="white"/>
</svg>
