<svg width="2427" height="264" viewBox="0 0 2427 264" fill="none" xmlns="http://www.w3.org/2000/svg">
<path fill-rule="evenodd" clip-rule="evenodd" d="M0 259.834V3.13682H156.467L198.035 118.646L240.823 3.13682H405.837V259.834H278.72V142.484L231.03 259.834H166.259L117.35 141.265V259.834H0ZM1970.26 259.834V3.13682H1844.97V259.834H1970.26ZM1596.21 3.13682V259.834H1826.03V172.431H1731.92V3.13682H1596.21ZM913.357 3.13682V259.834H1042.32V176.711H1115.66V259.834H1244.01V3.13682H1115.66V94.8071H1042.32V3.13682H913.357ZM1270.45 3.13682V259.834H1568.1V193.831H1404.3V168.761H1568.1V109.476H1404.3V84.4183H1568.1V3.13682H1270.45ZM1996.71 259.834V3.13682H2125.07L2206.96 103.367V3.13682H2334.1V259.834H2221.63L2128.74 158.982V259.834H1996.71ZM881.127 7.41686C824.903 -1.75276 700.212 -4.20404 664.752 10.4648C629.306 25.1336 579.191 53.252 581.629 136.375C584.067 219.486 635.415 237.825 659.863 248.836C684.311 259.834 776.604 275.113 882.956 248.227L881.127 168.151C847.509 173.041 716.1 202.988 717.319 136.375C718.447 75.2617 832.218 97.8681 881.127 98.4776V7.41686ZM559.632 259.834V3.13682H434.344V259.834H559.632ZM2417.37 13.2014C2414.51 10.2708 2411.08 7.9553 2407.29 6.39647C2403.5 4.83764 2399.43 4.0683 2395.33 4.13553C2386.77 4.13553 2379.47 7.15745 2373.43 13.2014C2370.49 16.042 2368.17 19.4555 2366.6 23.2303C2365.04 27.0051 2364.27 31.0608 2364.34 35.1462C2364.34 43.7971 2367.32 51.151 2373.35 57.2208C2379.38 63.3296 2386.72 66.3774 2395.33 66.3774C2403.95 66.3774 2411.29 63.3296 2417.37 57.2208C2423.45 51.125 2426.49 43.7582 2426.49 35.1462C2426.49 26.5602 2423.45 19.2453 2417.37 13.2014ZM2414.27 54.2248C2409.08 59.4775 2402.74 62.1104 2395.32 62.1104C2387.9 62.1104 2381.59 59.4775 2376.37 54.2248C2373.86 51.7346 2371.88 48.7617 2370.54 45.4851C2369.21 42.2085 2368.56 38.696 2368.62 35.1592C2368.62 27.7664 2371.22 21.4372 2376.42 16.2233C2378.86 13.6831 2381.8 11.6722 2385.05 10.3156C2388.3 8.95905 2391.8 8.28575 2395.32 8.3377C2402.71 8.3377 2409.06 10.9706 2414.27 16.2233C2416.79 18.6844 2418.78 21.6325 2420.12 24.888C2421.46 28.1435 2422.13 31.6382 2422.08 35.1592C2422.08 42.6168 2419.47 48.972 2414.27 54.2248Z" fill="white"/>
<path fill-rule="evenodd" clip-rule="evenodd" d="M2409.19 51.7217C2409 51.1477 2408.9 50.5487 2408.89 49.9448C2408.84 49.0983 2408.81 48.2507 2408.81 47.4027V44.8996C2408.74 42.981 2408.08 41.1301 2406.93 39.595C2405.68 37.7922 2403.74 36.6767 2401.05 36.2487C2403.15 35.9115 2404.83 35.3668 2406.02 34.6016C2408.25 33.1619 2409.37 30.9182 2409.37 27.8573C2409.37 23.5643 2407.59 20.685 2404.08 19.2064C2402.1 18.3893 2398.98 17.9744 2394.75 17.9744H2382.79V52.1237H2388.8V38.6481H2393.56C2396.75 38.6481 2398.98 39.0113 2400.25 39.7506C2402.4 41.0216 2403.47 43.6285 2403.47 47.5843V50.295L2403.6 51.3974C2403.65 51.6368 2403.71 51.8746 2403.78 52.1107H2409.41L2409.19 51.7217ZM2399.94 33.7067C2398.67 34.2254 2396.77 34.4718 2394.22 34.4718H2388.8V22.0988H2393.93C2397.28 22.0988 2399.68 22.5268 2401.21 23.3698C2402.7 24.2128 2403.47 25.8858 2403.47 28.376C2403.45 30.9959 2402.3 32.7858 2399.94 33.7067Z" fill="white"/>
</svg>
