<svg width="2333" height="825" viewBox="0 0 2333 825" fill="none" xmlns="http://www.w3.org/2000/svg">
<path fill-rule="evenodd" clip-rule="evenodd" d="M1165.89 0C1810.66 0 2332.56 185.454 2332.56 413.151C2332.56 641.64 1810.66 824.747 1165.89 824.747C522.694 824.747 0 641.64 0 413.151C0.000661482 185.454 522.695 8.04298e-05 1165.89 0ZM1165.89 34.4336C541.476 34.4336 36.77 204.234 36.7695 413.15C36.7825 622.871 541.475 792.672 1165.89 792.672C1789.53 792.672 2295.78 622.871 2295.78 413.15C2295.78 204.234 1789.53 34.4337 1165.89 34.4336Z" fill="white"/>
<path fill-rule="evenodd" clip-rule="evenodd" d="M1682.33 566.531C1679.19 572.783 1671.36 584.521 1672.15 593.911C1673.75 608.774 1692.51 604.87 1685.47 604.87C1719.12 603.301 1780.92 539.14 1795.79 523.498C1798.91 519.568 1804.41 512.538 1807.52 512.538C1810.66 512.538 1816.92 515.664 1816.92 520.359C1816.92 523.498 1809.88 535.222 1804.41 542.265C1773.1 581.394 1721.46 641.639 1662.78 643.209C1633.83 643.209 1622.85 631.471 1618.95 608.787C1605.66 620.512 1560.26 640.861 1514.1 640.861C1475.75 640.083 1460.1 617.386 1452.29 599.396C1445.25 584.533 1442.11 562.627 1447.58 540.722C1426.45 551.681 1406.89 553.237 1378.72 552.459C1345.85 551.668 1325.5 536.805 1315.34 498.453C1277.78 567.323 1276.2 569.657 1237.87 641.652H1171.36L1256.65 496.896C1267.62 477.325 1273.1 461.684 1276.99 445.265C1279.35 435.862 1272.31 427.25 1262.13 426.484C1251.18 426.484 1233.2 437.444 1215.97 453.863C1215.97 453.863 1172.15 500.814 1140.07 548.543C1109.54 593.937 1057.13 645.569 1000.01 645.569C958.53 645.569 920.97 622.885 913.149 579.061C913.129 579.112 909.139 589.282 872.449 610.356C869.324 611.913 861.503 616.608 859.168 615.052C852.113 608.801 848.21 600.967 847.418 595.48C849.766 596.271 854.461 592.354 869.323 580.617C898.272 558.711 904.536 541.474 904.536 541.474C911.566 526.61 924.108 503.135 932.707 486.702C956.196 439.752 996.869 392.023 1063.38 389.676C1074.34 389.676 1077.46 394.371 1079.81 398.288C1086.06 402.983 1083.73 412.373 1083.73 412.373C1036.78 419.416 1004.7 446.794 985.131 473.408C973.407 490.619 960.877 518.789 958.53 539.126C953.834 574.339 970.267 597.802 994.521 603.288C1039.9 610.331 1077.46 577.465 1107.2 526.61C1115.04 513.303 1120.51 478.869 1120.51 460.089C1120.51 441.309 1110.33 421.75 1102.51 413.916C1102.51 400.622 1111.11 392.011 1121.27 392.011C1124.4 392.011 1127.54 392.01 1130.66 395.136C1146.32 410.79 1154.93 440.531 1154.93 463.215C1154.93 471.048 1154.93 478.869 1153.36 486.702C1186.23 446.794 1227.69 395.149 1259.79 384.98C1266.04 381.855 1272.31 381.855 1278.56 381.855C1337.25 380.286 1329.43 433.501 1329.43 433.501C1360.71 397.51 1382.63 384.203 1411.58 385.759C1442.89 387.328 1453.83 409.247 1453.83 426.458C1453.04 446.795 1438.2 470.27 1412.39 471.048C1389.67 471.048 1376.38 460.089 1369.33 439.752C1354.47 445.238 1347.44 455.407 1344.3 475.743C1339.59 501.566 1359.17 521.916 1384.2 521.916C1427.24 521.929 1446.04 503.135 1461.69 489.05C1514.89 438.974 1544.61 386.55 1621.31 387.328C1667.47 388.106 1679.2 424.888 1687.02 440.543L1787.96 269.965H1849.77L1682.33 566.531ZM1624.45 424.11C1597.05 420.985 1562.61 444.461 1534.45 478.896C1520.37 496.106 1505.5 528.971 1503.14 548.529C1500.03 568.101 1505.5 587.66 1512.55 593.133C1519.59 598.606 1550.9 615.038 1599.41 565.754C1626.73 538.412 1653.29 493.921 1653.39 493.759L1644.77 491.397C1661.21 460.893 1658.05 428.014 1624.45 424.11Z" fill="white"/>
<path d="M899.076 108.764C935.846 108.764 977.323 111.889 1022.72 119.723C1075.13 129.113 1205.8 151.019 1312.22 152.589C1351.36 152.589 1401.43 154.158 1442.12 147.894C1485.15 140.851 1475.76 139.281 1492.99 139.281C1508.63 139.281 1508.63 145.546 1508.63 151.811C1508.63 176.855 1420.98 224.584 1346.64 224.584C1230.84 224.584 1110.34 169.022 1054.8 156.506C994.547 142.421 939.775 130.683 896.729 130.683C745.709 130.683 678.408 195.635 681.547 255.102C683.116 279.355 702.663 295.01 731.624 289.523C762.933 284.05 806.745 254.31 817.704 228.487C820.052 223.014 826.316 222.224 828.663 223.793C833.352 227.705 831.793 233.168 831.789 233.183C827.872 263.7 780.922 348.212 699.55 348.212C654.169 348.212 623.651 305.956 624.429 264.479C625.207 187.01 704.245 108.764 899.076 108.764Z" fill="white"/>
<path fill-rule="evenodd" clip-rule="evenodd" d="M1059.49 156.518C1062.61 156.518 1069.67 161.214 1066.53 169.034C1065.74 170.603 1057.92 179.203 1054.8 181.551C1039.15 195.636 985.935 230.07 928.038 327.875C974.958 325.529 1029.69 316.15 1029.76 316.138C1029.76 316.138 1026.63 305.969 1026.63 297.357C1028.98 263.714 1048.54 243.364 1073.59 247.281C1087.68 249.629 1097.06 261.366 1097.06 273.882C1097.06 287.189 1086.89 306.748 1076.71 316.138C1069.65 321.598 1061.82 327.084 1052.44 331.779C1052.44 340.391 1064.17 347.433 1074.35 348.225C1072 356.823 1072.78 360.741 1068.88 359.963C1045.46 359.963 1036.05 337.369 1036.01 337.266C1004.73 342.739 974.21 346.655 912.384 352.92C756.669 604.883 708.162 646.36 612.691 646.36C544.613 646.36 484.368 601.757 482.799 521.941C482.008 473.435 521.138 413.955 593.911 395.953C602.523 395.953 605.648 399.092 605.648 403.787C605.648 406.926 602.522 410.83 595.467 413.956C574.339 421.79 537.57 463.254 537.57 501.605C537.57 530.554 555.572 562.641 586.077 569.671C594.689 572.031 602.523 571.24 610.344 571.24C686.243 571.24 771.532 485.951 863.863 356.059C848.999 356.837 785.617 363.893 769.963 381.882C762.933 387.355 758.238 384.229 756.669 377.965C756.669 376.395 759.016 370.922 761.377 367.783C786.409 339.613 861.53 333.361 879.519 331.014C949.944 223.028 1040.71 155.728 1059.49 156.518ZM1079.03 273.869C1078.24 269.174 1075.91 263.7 1070.43 264.478C1058.68 266.839 1051.64 272.312 1048.51 284.05C1044.61 296.565 1046.18 305.178 1048.51 314.555C1048.51 314.555 1056.35 315.346 1068.07 302.039C1072.77 297.344 1080.6 283.259 1079.03 273.869Z" fill="white"/>
</svg>
