<svg width="1226" height="537" viewBox="0 0 1226 537" fill="none" xmlns="http://www.w3.org/2000/svg">
<path fill-rule="evenodd" clip-rule="evenodd" d="M837.278 380.286C890.48 330.21 920.193 277.786 996.897 278.565C1043.06 279.343 1054.78 316.125 1062.6 331.78L1163.55 161.201H1225.36L1057.92 457.768C1054.78 464.019 1046.95 475.757 1047.74 485.147C1049.33 500.01 1068.1 496.106 1061.06 496.106C1094.7 494.537 1156.5 430.376 1171.38 414.734C1174.49 410.804 1179.99 403.775 1183.1 403.775C1186.24 403.775 1192.51 406.9 1192.51 411.595C1192.51 414.734 1185.46 426.459 1179.99 433.501C1148.68 472.631 1097.05 532.876 1038.36 534.445C1009.41 534.445 998.44 522.707 994.536 500.023C981.242 511.748 935.848 532.098 889.689 532.098C851.337 531.319 835.683 508.622 827.875 490.633C820.832 475.77 817.693 453.864 823.167 431.958C802.039 442.917 782.48 444.474 754.31 443.696C721.432 442.904 701.082 428.041 690.927 389.69C653.366 458.559 651.784 460.894 613.458 532.889H546.95L632.239 388.133C643.211 368.562 648.684 352.92 652.575 336.501C654.936 327.097 647.893 318.486 637.712 317.72C626.765 317.72 608.789 328.68 591.553 345.1C591.553 345.1 547.741 392.05 515.653 439.779C485.123 485.173 432.712 536.806 375.593 536.806C334.116 536.806 296.555 514.121 288.735 470.297C288.735 470.297 284.818 480.465 248.035 501.593C244.91 503.149 237.089 507.844 234.754 506.288C227.699 500.036 223.795 492.203 223.004 486.716C225.351 487.508 230.046 483.591 244.91 471.853C273.858 449.947 280.123 432.71 280.123 432.71C287.152 417.847 299.694 394.372 308.293 377.939C331.781 330.988 372.454 283.26 438.963 280.912C449.923 280.912 453.048 285.607 455.396 289.524C461.647 294.219 459.313 303.609 459.313 303.609C412.362 310.652 380.288 338.031 360.717 364.645C348.992 381.856 336.463 410.026 334.116 430.363C329.421 465.576 345.853 489.038 370.107 494.524C415.488 501.567 453.048 468.701 482.788 417.847C490.622 404.54 496.095 370.105 496.095 351.325C496.095 332.545 485.914 312.986 478.093 305.153C478.093 291.859 486.692 283.247 496.86 283.247C499.986 283.247 503.125 283.247 506.25 286.372C521.905 302.027 530.517 331.767 530.517 354.451C530.517 362.284 530.517 370.105 528.947 377.939C561.813 338.031 603.277 286.385 635.377 276.217C641.629 273.091 647.893 273.091 654.145 273.091C712.833 271.522 705.012 324.737 705.012 324.737C736.295 288.746 758.214 275.439 787.163 276.995C818.472 278.565 829.418 300.484 829.418 317.694C828.627 338.031 813.789 361.506 787.98 362.285C765.257 362.285 751.963 351.325 744.92 330.988C730.057 336.475 723.027 346.643 719.888 366.98C715.18 392.802 734.752 413.152 759.783 413.152C802.83 413.165 821.623 394.372 837.278 380.286ZM884.215 43.0467C884.215 68.0913 796.566 115.82 722.223 115.82C606.429 115.82 485.927 60.2575 430.39 47.7417C370.133 33.6565 315.361 21.9189 272.315 21.9189C121.295 21.9189 53.9947 86.8715 57.1334 146.338C58.7027 170.591 78.2482 186.246 107.21 180.76C138.519 175.286 182.331 145.547 193.29 119.724C195.638 114.251 201.902 113.46 204.249 115.029C208.945 118.946 207.375 124.419 207.375 124.419C203.458 154.937 156.508 239.448 75.1354 239.448C29.7542 239.448 -0.763642 197.192 0.0145441 155.715C0.79273 78.2466 79.8304 0 274.662 0C311.432 0 352.909 3.12573 398.303 10.9595C450.714 20.3496 581.384 42.2556 687.801 43.8249C726.944 43.8249 777.02 45.3943 817.706 39.1299C860.74 32.0873 851.35 30.5179 868.574 30.5179C884.215 30.5179 884.215 36.7823 884.215 43.0467Z" fill="white"/>
</svg>
