<svg width="615" height="490" viewBox="0 0 615 490" fill="none" xmlns="http://www.w3.org/2000/svg">
<path fill-rule="evenodd" clip-rule="evenodd" d="M569.657 175.267C569.657 183.879 581.381 190.922 591.563 191.713C589.215 200.312 589.993 204.229 586.089 203.451C562.614 203.451 553.224 180.754 553.224 180.754C521.941 186.227 491.423 190.144 429.596 196.408C273.881 448.372 225.374 489.849 129.904 489.849C61.8256 489.849 1.58111 445.246 0.0117655 365.43C-0.77939 316.923 38.3504 257.444 111.124 239.442C119.736 239.442 122.861 242.58 122.861 247.275C122.861 250.414 119.736 254.318 112.68 257.444C91.5524 265.278 54.7831 306.742 54.7831 345.093C54.7831 374.042 72.7851 406.129 103.29 413.159C111.902 415.519 119.736 414.728 127.556 414.728C203.455 414.728 288.745 329.439 381.076 199.547C366.213 200.325 302.83 207.381 287.175 225.37C280.146 230.843 275.451 227.717 273.881 221.453C273.881 219.883 276.229 214.41 278.589 211.271C303.621 183.101 378.742 176.85 396.731 174.502C467.157 66.5159 557.919 -0.784256 576.699 0.00689974C579.825 0.00689974 586.881 4.70201 583.742 12.5228C582.951 14.0921 575.13 22.691 572.017 25.0386C556.363 39.1237 503.148 73.5585 445.251 171.364C492.201 169.016 546.973 159.626 546.973 159.626C546.973 159.626 543.847 149.458 543.847 140.846C546.195 107.202 565.753 86.8525 590.797 90.7693C604.896 93.1169 614.273 104.855 614.273 117.37C614.273 130.677 604.105 150.236 593.923 159.626C586.868 165.086 579.034 170.572 569.657 175.267Z" fill="white"/>
</svg>
